# xmcd CD database file
# Copyright (C) 1995-1998 Ti Kan
#
# Track frame offsets:
#	150
#	12140
#	24437
#	37082
#	52977
#	68000
#	79935
#	92345
#	103815
#	119120
#
# Disc length: 1762 seconds
#
# Revision: 1
# Processed by: cddbd v1.4b41PL1 Copyright (c) Steve Scherf et al.
# Submitted via: CDex 1.30
#
DISCID=7a06e00a
DTITLE=Larry Gatlin - Super Hits
DYEAR=2001
DGENRE=Country
TTITLE0=Broken Lady
TTITLE1=Statues Without Hearts
TTITLE2=I Don't Wanna Cry
TTITLE3=Love is just a game
TTITLE4=She Used To Be Somebody's Baby
TTITLE5=All The Gold In California
TTITLE6=Take Me To Your Lovin' Place
TTITLE7=What Are We Doin' Lonesome
TTITLE8=Sure Feels Like Love
TTITLE9=Houston (Means I'm One Day Closer To You)
EXTD=YEAR: 2001  ID3G:   2
EXTT0=
EXTT1=
EXTT2=
EXTT3=
EXTT4=
EXTT5=
EXTT6=
EXTT7=
EXTT8=
EXTT9=
PLAYORDER=
